<svg width="279" height="90" viewBox="0 0 279 90" fill="none" xmlns="http://www.w3.org/2000/svg">
<path d="M42.5703 88H24.4648V38.4297C24.4648 37.0625 24.4844 35.3828 24.5234 33.3906C24.5625 31.3594 24.6211 29.2891 24.6992 27.1797C24.7773 25.0312 24.8555 23.0977 24.9336 21.3789C24.5039 21.8867 23.625 22.7656 22.2969 24.0156C21.0078 25.2266 19.7969 26.3203 18.6641 27.2969L8.82031 35.207L0.0898438 24.3086L27.6875 2.33594H42.5703V88ZM125.891 45.168C125.891 52.082 125.344 58.2539 124.25 63.6836C123.195 69.1133 121.477 73.7227 119.094 77.5117C116.75 81.3008 113.664 84.1914 109.836 86.1836C106.008 88.1758 101.359 89.1719 95.8906 89.1719C89.0156 89.1719 83.3711 87.4336 78.957 83.957C74.543 80.4414 71.2812 75.4023 69.1719 68.8398C67.0625 62.2383 66.0078 54.3477 66.0078 45.168C66.0078 35.9102 66.9648 28 68.8789 21.4375C70.832 14.8359 73.9961 9.77734 78.3711 6.26172C82.7461 2.74609 88.5859 0.988281 95.8906 0.988281C102.727 0.988281 108.352 2.74609 112.766 6.26172C117.219 9.73828 120.52 14.7773 122.668 21.3789C124.816 27.9414 125.891 35.8711 125.891 45.168ZM83.9961 45.168C83.9961 51.6914 84.3477 57.1406 85.0508 61.5156C85.793 65.8516 87.0234 69.1133 88.7422 71.3008C90.4609 73.4883 92.8438 74.582 95.8906 74.582C98.8984 74.582 101.262 73.5078 102.98 71.3594C104.738 69.1719 105.988 65.9102 106.73 61.5742C107.473 57.1992 107.844 51.7305 107.844 45.168C107.844 38.6445 107.473 33.1953 106.73 28.8203C105.988 24.4453 104.738 21.1641 102.98 18.9766C101.262 16.75 98.8984 15.6367 95.8906 15.6367C92.8438 15.6367 90.4609 16.75 88.7422 18.9766C87.0234 21.1641 85.793 24.4453 85.0508 28.8203C84.3477 33.1953 83.9961 38.6445 83.9961 45.168ZM166.32 33.2734C171.555 33.2734 176.203 34.2695 180.266 36.2617C184.367 38.2539 187.59 41.1836 189.934 45.0508C192.277 48.918 193.449 53.6836 193.449 59.3477C193.449 65.5195 192.16 70.8516 189.582 75.3438C187.043 79.7969 183.234 83.2148 178.156 85.5977C173.117 87.9805 166.828 89.1719 159.289 89.1719C154.797 89.1719 150.559 88.7812 146.574 88C142.629 87.2578 139.172 86.1055 136.203 84.543V68.8984C139.172 70.4609 142.727 71.7891 146.867 72.8828C151.047 73.9375 154.973 74.4648 158.645 74.4648C162.238 74.4648 165.266 73.9961 167.727 73.0586C170.188 72.082 172.043 70.5977 173.293 68.6055C174.582 66.5742 175.227 63.9961 175.227 60.8711C175.227 56.6914 173.82 53.4883 171.008 51.2617C168.195 49.0352 163.879 47.9219 158.059 47.9219C155.832 47.9219 153.508 48.1367 151.086 48.5664C148.703 48.9961 146.711 49.4258 145.109 49.8555L137.902 45.9883L141.125 2.33594H187.59V17.6875H157.004L155.422 34.5039C156.75 34.2305 158.195 33.957 159.758 33.6836C161.32 33.4102 163.508 33.2734 166.32 33.2734ZM278.703 88H258.078L235.637 51.9062L227.961 57.4141V88H209.797V2.33594H227.961V41.5352C229.172 39.8555 230.363 38.1758 231.535 36.4961C232.707 34.8164 233.898 33.1367 235.109 31.457L258.312 2.33594H278.469L248.586 40.2461L278.703 88Z" fill="white"/>
<path d="M42.5703 88H24.4648V38.4297C24.4648 37.0625 24.4844 35.3828 24.5234 33.3906C24.5625 31.3594 24.6211 29.2891 24.6992 27.1797C24.7773 25.0312 24.8555 23.0977 24.9336 21.3789C24.5039 21.8867 23.625 22.7656 22.2969 24.0156C21.0078 25.2266 19.7969 26.3203 18.6641 27.2969L8.82031 35.207L0.0898438 24.3086L27.6875 2.33594H42.5703V88ZM125.891 45.168C125.891 52.082 125.344 58.2539 124.25 63.6836C123.195 69.1133 121.477 73.7227 119.094 77.5117C116.75 81.3008 113.664 84.1914 109.836 86.1836C106.008 88.1758 101.359 89.1719 95.8906 89.1719C89.0156 89.1719 83.3711 87.4336 78.957 83.957C74.543 80.4414 71.2812 75.4023 69.1719 68.8398C67.0625 62.2383 66.0078 54.3477 66.0078 45.168C66.0078 35.9102 66.9648 28 68.8789 21.4375C70.832 14.8359 73.9961 9.77734 78.3711 6.26172C82.7461 2.74609 88.5859 0.988281 95.8906 0.988281C102.727 0.988281 108.352 2.74609 112.766 6.26172C117.219 9.73828 120.52 14.7773 122.668 21.3789C124.816 27.9414 125.891 35.8711 125.891 45.168ZM83.9961 45.168C83.9961 51.6914 84.3477 57.1406 85.0508 61.5156C85.793 65.8516 87.0234 69.1133 88.7422 71.3008C90.4609 73.4883 92.8438 74.582 95.8906 74.582C98.8984 74.582 101.262 73.5078 102.98 71.3594C104.738 69.1719 105.988 65.9102 106.73 61.5742C107.473 57.1992 107.844 51.7305 107.844 45.168C107.844 38.6445 107.473 33.1953 106.73 28.8203C105.988 24.4453 104.738 21.1641 102.98 18.9766C101.262 16.75 98.8984 15.6367 95.8906 15.6367C92.8438 15.6367 90.4609 16.75 88.7422 18.9766C87.0234 21.1641 85.793 24.4453 85.0508 28.8203C84.3477 33.1953 83.9961 38.6445 83.9961 45.168ZM166.32 33.2734C171.555 33.2734 176.203 34.2695 180.266 36.2617C184.367 38.2539 187.59 41.1836 189.934 45.0508C192.277 48.918 193.449 53.6836 193.449 59.3477C193.449 65.5195 192.16 70.8516 189.582 75.3438C187.043 79.7969 183.234 83.2148 178.156 85.5977C173.117 87.9805 166.828 89.1719 159.289 89.1719C154.797 89.1719 150.559 88.7812 146.574 88C142.629 87.2578 139.172 86.1055 136.203 84.543V68.8984C139.172 70.4609 142.727 71.7891 146.867 72.8828C151.047 73.9375 154.973 74.4648 158.645 74.4648C162.238 74.4648 165.266 73.9961 167.727 73.0586C170.188 72.082 172.043 70.5977 173.293 68.6055C174.582 66.5742 175.227 63.9961 175.227 60.8711C175.227 56.6914 173.82 53.4883 171.008 51.2617C168.195 49.0352 163.879 47.9219 158.059 47.9219C155.832 47.9219 153.508 48.1367 151.086 48.5664C148.703 48.9961 146.711 49.4258 145.109 49.8555L137.902 45.9883L141.125 2.33594H187.59V17.6875H157.004L155.422 34.5039C156.75 34.2305 158.195 33.957 159.758 33.6836C161.32 33.4102 163.508 33.2734 166.32 33.2734ZM278.703 88H258.078L235.637 51.9062L227.961 57.4141V88H209.797V2.33594H227.961V41.5352C229.172 39.8555 230.363 38.1758 231.535 36.4961C232.707 34.8164 233.898 33.1367 235.109 31.457L258.312 2.33594H278.469L248.586 40.2461L278.703 88Z" fill="url(#paint0_linear_21_201)"/>
<defs>
<linearGradient id="paint0_linear_21_201" x1="-7" y1="41.5" x2="279" y2="41.5" gradientUnits="userSpaceOnUse">
<stop stop-color="#7D8EA1"/>
<stop offset="0.26554" stop-color="#FF6B6B"/>
</linearGradient>
</defs>
</svg>
