<svg width="112" height="86" viewBox="0 0 112 86" fill="none" xmlns="http://www.w3.org/2000/svg">
<path d="M42.5703 86H24.4648V36.4297C24.4648 35.0625 24.4844 33.3828 24.5234 31.3906C24.5625 29.3594 24.6211 27.2891 24.6992 25.1797C24.7773 23.0312 24.8555 21.0977 24.9336 19.3789C24.5039 19.8867 23.625 20.7656 22.2969 22.0156C21.0078 23.2266 19.7969 24.3203 18.6641 25.2969L8.82031 33.207L0.0898438 22.3086L27.6875 0.335938H42.5703V86ZM111.242 86H93.1367V36.4297C93.1367 35.0625 93.1562 33.3828 93.1953 31.3906C93.2344 29.3594 93.293 27.2891 93.3711 25.1797C93.4492 23.0312 93.5273 21.0977 93.6055 19.3789C93.1758 19.8867 92.2969 20.7656 90.9688 22.0156C89.6797 23.2266 88.4688 24.3203 87.3359 25.2969L77.4922 33.207L68.7617 22.3086L96.3594 0.335938H111.242V86Z" fill="white"/>
<path d="M42.5703 86H24.4648V36.4297C24.4648 35.0625 24.4844 33.3828 24.5234 31.3906C24.5625 29.3594 24.6211 27.2891 24.6992 25.1797C24.7773 23.0312 24.8555 21.0977 24.9336 19.3789C24.5039 19.8867 23.625 20.7656 22.2969 22.0156C21.0078 23.2266 19.7969 24.3203 18.6641 25.2969L8.82031 33.207L0.0898438 22.3086L27.6875 0.335938H42.5703V86ZM111.242 86H93.1367V36.4297C93.1367 35.0625 93.1562 33.3828 93.1953 31.3906C93.2344 29.3594 93.293 27.2891 93.3711 25.1797C93.4492 23.0312 93.5273 21.0977 93.6055 19.3789C93.1758 19.8867 92.2969 20.7656 90.9688 22.0156C89.6797 23.2266 88.4688 24.3203 87.3359 25.2969L77.4922 33.207L68.7617 22.3086L96.3594 0.335938H111.242V86Z" fill="url(#paint0_linear_21_214)"/>
<defs>
<linearGradient id="paint0_linear_21_214" x1="-7" y1="39.5" x2="131" y2="39.5" gradientUnits="userSpaceOnUse">
<stop stop-color="#7D8EA1"/>
<stop offset="0.26554" stop-color="#FF6B6B"/>
</linearGradient>
</defs>
</svg>
