<svg width="195" height="90" viewBox="0 0 195 90" fill="none" xmlns="http://www.w3.org/2000/svg">
<path d="M42.5703 88H24.4648V38.4297C24.4648 37.0625 24.4844 35.3828 24.5234 33.3906C24.5625 31.3594 24.6211 29.2891 24.6992 27.1797C24.7773 25.0312 24.8555 23.0977 24.9336 21.3789C24.5039 21.8867 23.625 22.7656 22.2969 24.0156C21.0078 25.2266 19.7969 26.3203 18.6641 27.2969L8.82031 35.207L0.0898438 24.3086L27.6875 2.33594H42.5703V88ZM97.6484 33.2734C102.883 33.2734 107.531 34.2695 111.594 36.2617C115.695 38.2539 118.918 41.1836 121.262 45.0508C123.605 48.918 124.777 53.6836 124.777 59.3477C124.777 65.5195 123.488 70.8516 120.91 75.3438C118.371 79.7969 114.562 83.2148 109.484 85.5977C104.445 87.9805 98.1562 89.1719 90.6172 89.1719C86.125 89.1719 81.8867 88.7812 77.9023 88C73.957 87.2578 70.5 86.1055 67.5312 84.543V68.8984C70.5 70.4609 74.0547 71.7891 78.1953 72.8828C82.375 73.9375 86.3008 74.4648 89.9727 74.4648C93.5664 74.4648 96.5938 73.9961 99.0547 73.0586C101.516 72.082 103.371 70.5977 104.621 68.6055C105.91 66.5742 106.555 63.9961 106.555 60.8711C106.555 56.6914 105.148 53.4883 102.336 51.2617C99.5234 49.0352 95.207 47.9219 89.3867 47.9219C87.1602 47.9219 84.8359 48.1367 82.4141 48.5664C80.0312 48.9961 78.0391 49.4258 76.4375 49.8555L69.2305 45.9883L72.4531 2.33594H118.918V17.6875H88.332L86.75 34.5039C88.0781 34.2305 89.5234 33.957 91.0859 33.6836C92.6484 33.4102 94.8359 33.2734 97.6484 33.2734ZM194.562 45.168C194.562 52.082 194.016 58.2539 192.922 63.6836C191.867 69.1133 190.148 73.7227 187.766 77.5117C185.422 81.3008 182.336 84.1914 178.508 86.1836C174.68 88.1758 170.031 89.1719 164.562 89.1719C157.688 89.1719 152.043 87.4336 147.629 83.957C143.215 80.4414 139.953 75.4023 137.844 68.8398C135.734 62.2383 134.68 54.3477 134.68 45.168C134.68 35.9102 135.637 28 137.551 21.4375C139.504 14.8359 142.668 9.77734 147.043 6.26172C151.418 2.74609 157.258 0.988281 164.562 0.988281C171.398 0.988281 177.023 2.74609 181.438 6.26172C185.891 9.73828 189.191 14.7773 191.34 21.3789C193.488 27.9414 194.562 35.8711 194.562 45.168ZM152.668 45.168C152.668 51.6914 153.02 57.1406 153.723 61.5156C154.465 65.8516 155.695 69.1133 157.414 71.3008C159.133 73.4883 161.516 74.582 164.562 74.582C167.57 74.582 169.934 73.5078 171.652 71.3594C173.41 69.1719 174.66 65.9102 175.402 61.5742C176.145 57.1992 176.516 51.7305 176.516 45.168C176.516 38.6445 176.145 33.1953 175.402 28.8203C174.66 24.4453 173.41 21.1641 171.652 18.9766C169.934 16.75 167.57 15.6367 164.562 15.6367C161.516 15.6367 159.133 16.75 157.414 18.9766C155.695 21.1641 154.465 24.4453 153.723 28.8203C153.02 33.1953 152.668 38.6445 152.668 45.168Z" fill="white"/>
<path d="M42.5703 88H24.4648V38.4297C24.4648 37.0625 24.4844 35.3828 24.5234 33.3906C24.5625 31.3594 24.6211 29.2891 24.6992 27.1797C24.7773 25.0312 24.8555 23.0977 24.9336 21.3789C24.5039 21.8867 23.625 22.7656 22.2969 24.0156C21.0078 25.2266 19.7969 26.3203 18.6641 27.2969L8.82031 35.207L0.0898438 24.3086L27.6875 2.33594H42.5703V88ZM97.6484 33.2734C102.883 33.2734 107.531 34.2695 111.594 36.2617C115.695 38.2539 118.918 41.1836 121.262 45.0508C123.605 48.918 124.777 53.6836 124.777 59.3477C124.777 65.5195 123.488 70.8516 120.91 75.3438C118.371 79.7969 114.562 83.2148 109.484 85.5977C104.445 87.9805 98.1562 89.1719 90.6172 89.1719C86.125 89.1719 81.8867 88.7812 77.9023 88C73.957 87.2578 70.5 86.1055 67.5312 84.543V68.8984C70.5 70.4609 74.0547 71.7891 78.1953 72.8828C82.375 73.9375 86.3008 74.4648 89.9727 74.4648C93.5664 74.4648 96.5938 73.9961 99.0547 73.0586C101.516 72.082 103.371 70.5977 104.621 68.6055C105.91 66.5742 106.555 63.9961 106.555 60.8711C106.555 56.6914 105.148 53.4883 102.336 51.2617C99.5234 49.0352 95.207 47.9219 89.3867 47.9219C87.1602 47.9219 84.8359 48.1367 82.4141 48.5664C80.0312 48.9961 78.0391 49.4258 76.4375 49.8555L69.2305 45.9883L72.4531 2.33594H118.918V17.6875H88.332L86.75 34.5039C88.0781 34.2305 89.5234 33.957 91.0859 33.6836C92.6484 33.4102 94.8359 33.2734 97.6484 33.2734ZM194.562 45.168C194.562 52.082 194.016 58.2539 192.922 63.6836C191.867 69.1133 190.148 73.7227 187.766 77.5117C185.422 81.3008 182.336 84.1914 178.508 86.1836C174.68 88.1758 170.031 89.1719 164.562 89.1719C157.688 89.1719 152.043 87.4336 147.629 83.957C143.215 80.4414 139.953 75.4023 137.844 68.8398C135.734 62.2383 134.68 54.3477 134.68 45.168C134.68 35.9102 135.637 28 137.551 21.4375C139.504 14.8359 142.668 9.77734 147.043 6.26172C151.418 2.74609 157.258 0.988281 164.562 0.988281C171.398 0.988281 177.023 2.74609 181.438 6.26172C185.891 9.73828 189.191 14.7773 191.34 21.3789C193.488 27.9414 194.562 35.8711 194.562 45.168ZM152.668 45.168C152.668 51.6914 153.02 57.1406 153.723 61.5156C154.465 65.8516 155.695 69.1133 157.414 71.3008C159.133 73.4883 161.516 74.582 164.562 74.582C167.57 74.582 169.934 73.5078 171.652 71.3594C173.41 69.1719 174.66 65.9102 175.402 61.5742C176.145 57.1992 176.516 51.7305 176.516 45.168C176.516 38.6445 176.145 33.1953 175.402 28.8203C174.66 24.4453 173.41 21.1641 171.652 18.9766C169.934 16.75 167.57 15.6367 164.562 15.6367C161.516 15.6367 159.133 16.75 157.414 18.9766C155.695 21.1641 154.465 24.4453 153.723 28.8203C153.02 33.1953 152.668 38.6445 152.668 45.168Z" fill="url(#paint0_linear_21_230)"/>
<defs>
<linearGradient id="paint0_linear_21_230" x1="-7" y1="41.5" x2="200" y2="41.5" gradientUnits="userSpaceOnUse">
<stop stop-color="#7D8EA1"/>
<stop offset="0.26554" stop-color="#FF6B6B"/>
</linearGradient>
</defs>
</svg>
