<svg width="214" height="87" viewBox="0 0 214 87" fill="none" xmlns="http://www.w3.org/2000/svg">
<path d="M60.6875 87H0.804688V74.4023L22.3086 52.6641C26.6445 48.2109 30.1211 44.5 32.7383 41.5312C35.3945 38.5234 37.3086 35.7891 38.4805 33.3281C39.6914 30.8672 40.2969 28.2305 40.2969 25.418C40.2969 22.0195 39.3398 19.4805 37.4258 17.8008C35.5508 16.082 33.0312 15.2227 29.8672 15.2227C26.5469 15.2227 23.3242 15.9844 20.1992 17.5078C17.0742 19.0312 13.8125 21.1992 10.4141 24.0117L0.570312 12.3516C3.03125 10.2422 5.62891 8.25 8.36328 6.375C11.1367 4.5 14.3398 2.99609 17.9727 1.86328C21.6445 0.691406 26.0391 0.105469 31.1562 0.105469C36.7812 0.105469 41.6055 1.12109 45.6289 3.15234C49.6914 5.18359 52.8164 7.95703 55.0039 11.4727C57.1914 14.9492 58.2852 18.8945 58.2852 23.3086C58.2852 28.0352 57.3477 32.3516 55.4727 36.2578C53.5977 40.1641 50.8633 44.0312 47.2695 47.8594C43.7148 51.6875 39.418 55.9258 34.3789 60.5742L23.3633 70.9453V71.7656H60.6875V87ZM114.242 87H96.1367V37.4297C96.1367 36.0625 96.1562 34.3828 96.1953 32.3906C96.2344 30.3594 96.293 28.2891 96.3711 26.1797C96.4492 24.0312 96.5273 22.0977 96.6055 20.3789C96.1758 20.8867 95.2969 21.7656 93.9688 23.0156C92.6797 24.2266 91.4688 25.3203 90.3359 26.2969L80.4922 34.207L71.7617 23.3086L99.3594 1.33594H114.242V87ZM213.031 87H192.406L169.965 50.9062L162.289 56.4141V87H144.125V1.33594H162.289V40.5352C163.5 38.8555 164.691 37.1758 165.863 35.4961C167.035 33.8164 168.227 32.1367 169.438 30.457L192.641 1.33594H212.797L182.914 39.2461L213.031 87Z" fill="white"/>
<path d="M60.6875 87H0.804688V74.4023L22.3086 52.6641C26.6445 48.2109 30.1211 44.5 32.7383 41.5312C35.3945 38.5234 37.3086 35.7891 38.4805 33.3281C39.6914 30.8672 40.2969 28.2305 40.2969 25.418C40.2969 22.0195 39.3398 19.4805 37.4258 17.8008C35.5508 16.082 33.0312 15.2227 29.8672 15.2227C26.5469 15.2227 23.3242 15.9844 20.1992 17.5078C17.0742 19.0312 13.8125 21.1992 10.4141 24.0117L0.570312 12.3516C3.03125 10.2422 5.62891 8.25 8.36328 6.375C11.1367 4.5 14.3398 2.99609 17.9727 1.86328C21.6445 0.691406 26.0391 0.105469 31.1562 0.105469C36.7812 0.105469 41.6055 1.12109 45.6289 3.15234C49.6914 5.18359 52.8164 7.95703 55.0039 11.4727C57.1914 14.9492 58.2852 18.8945 58.2852 23.3086C58.2852 28.0352 57.3477 32.3516 55.4727 36.2578C53.5977 40.1641 50.8633 44.0312 47.2695 47.8594C43.7148 51.6875 39.418 55.9258 34.3789 60.5742L23.3633 70.9453V71.7656H60.6875V87ZM114.242 87H96.1367V37.4297C96.1367 36.0625 96.1562 34.3828 96.1953 32.3906C96.2344 30.3594 96.293 28.2891 96.3711 26.1797C96.4492 24.0312 96.5273 22.0977 96.6055 20.3789C96.1758 20.8867 95.2969 21.7656 93.9688 23.0156C92.6797 24.2266 91.4688 25.3203 90.3359 26.2969L80.4922 34.207L71.7617 23.3086L99.3594 1.33594H114.242V87ZM213.031 87H192.406L169.965 50.9062L162.289 56.4141V87H144.125V1.33594H162.289V40.5352C163.5 38.8555 164.691 37.1758 165.863 35.4961C167.035 33.8164 168.227 32.1367 169.438 30.457L192.641 1.33594H212.797L182.914 39.2461L213.031 87Z" fill="url(#paint0_linear_21_197)"/>
<defs>
<linearGradient id="paint0_linear_21_197" x1="-4" y1="40.5" x2="214" y2="40.5" gradientUnits="userSpaceOnUse">
<stop stop-color="#7D8EA1"/>
<stop offset="0.26554" stop-color="#FF6B6B"/>
</linearGradient>
</defs>
</svg>
