<svg width="128" height="89" viewBox="0 0 128 89" fill="none" xmlns="http://www.w3.org/2000/svg">
<path d="M60.6875 87H0.804688V74.4023L22.3086 52.6641C26.6445 48.2109 30.1211 44.5 32.7383 41.5312C35.3945 38.5234 37.3086 35.7891 38.4805 33.3281C39.6914 30.8672 40.2969 28.2305 40.2969 25.418C40.2969 22.0195 39.3398 19.4805 37.4258 17.8008C35.5508 16.082 33.0312 15.2227 29.8672 15.2227C26.5469 15.2227 23.3242 15.9844 20.1992 17.5078C17.0742 19.0312 13.8125 21.1992 10.4141 24.0117L0.570312 12.3516C3.03125 10.2422 5.62891 8.25 8.36328 6.375C11.1367 4.5 14.3398 2.99609 17.9727 1.86328C21.6445 0.691406 26.0391 0.105469 31.1562 0.105469C36.7812 0.105469 41.6055 1.12109 45.6289 3.15234C49.6914 5.18359 52.8164 7.95703 55.0039 11.4727C57.1914 14.9492 58.2852 18.8945 58.2852 23.3086C58.2852 28.0352 57.3477 32.3516 55.4727 36.2578C53.5977 40.1641 50.8633 44.0312 47.2695 47.8594C43.7148 51.6875 39.418 55.9258 34.3789 60.5742L23.3633 70.9453V71.7656H60.6875V87ZM100.648 32.2734C105.883 32.2734 110.531 33.2695 114.594 35.2617C118.695 37.2539 121.918 40.1836 124.262 44.0508C126.605 47.918 127.777 52.6836 127.777 58.3477C127.777 64.5195 126.488 69.8516 123.91 74.3438C121.371 78.7969 117.562 82.2148 112.484 84.5977C107.445 86.9805 101.156 88.1719 93.6172 88.1719C89.125 88.1719 84.8867 87.7812 80.9023 87C76.957 86.2578 73.5 85.1055 70.5312 83.543V67.8984C73.5 69.4609 77.0547 70.7891 81.1953 71.8828C85.375 72.9375 89.3008 73.4648 92.9727 73.4648C96.5664 73.4648 99.5938 72.9961 102.055 72.0586C104.516 71.082 106.371 69.5977 107.621 67.6055C108.91 65.5742 109.555 62.9961 109.555 59.8711C109.555 55.6914 108.148 52.4883 105.336 50.2617C102.523 48.0352 98.207 46.9219 92.3867 46.9219C90.1602 46.9219 87.8359 47.1367 85.4141 47.5664C83.0312 47.9961 81.0391 48.4258 79.4375 48.8555L72.2305 44.9883L75.4531 1.33594H121.918V16.6875H91.332L89.75 33.5039C91.0781 33.2305 92.5234 32.957 94.0859 32.6836C95.6484 32.4102 97.8359 32.2734 100.648 32.2734Z" fill="white"/>
<path d="M60.6875 87H0.804688V74.4023L22.3086 52.6641C26.6445 48.2109 30.1211 44.5 32.7383 41.5312C35.3945 38.5234 37.3086 35.7891 38.4805 33.3281C39.6914 30.8672 40.2969 28.2305 40.2969 25.418C40.2969 22.0195 39.3398 19.4805 37.4258 17.8008C35.5508 16.082 33.0312 15.2227 29.8672 15.2227C26.5469 15.2227 23.3242 15.9844 20.1992 17.5078C17.0742 19.0312 13.8125 21.1992 10.4141 24.0117L0.570312 12.3516C3.03125 10.2422 5.62891 8.25 8.36328 6.375C11.1367 4.5 14.3398 2.99609 17.9727 1.86328C21.6445 0.691406 26.0391 0.105469 31.1562 0.105469C36.7812 0.105469 41.6055 1.12109 45.6289 3.15234C49.6914 5.18359 52.8164 7.95703 55.0039 11.4727C57.1914 14.9492 58.2852 18.8945 58.2852 23.3086C58.2852 28.0352 57.3477 32.3516 55.4727 36.2578C53.5977 40.1641 50.8633 44.0312 47.2695 47.8594C43.7148 51.6875 39.418 55.9258 34.3789 60.5742L23.3633 70.9453V71.7656H60.6875V87ZM100.648 32.2734C105.883 32.2734 110.531 33.2695 114.594 35.2617C118.695 37.2539 121.918 40.1836 124.262 44.0508C126.605 47.918 127.777 52.6836 127.777 58.3477C127.777 64.5195 126.488 69.8516 123.91 74.3438C121.371 78.7969 117.562 82.2148 112.484 84.5977C107.445 86.9805 101.156 88.1719 93.6172 88.1719C89.125 88.1719 84.8867 87.7812 80.9023 87C76.957 86.2578 73.5 85.1055 70.5312 83.543V67.8984C73.5 69.4609 77.0547 70.7891 81.1953 71.8828C85.375 72.9375 89.3008 73.4648 92.9727 73.4648C96.5664 73.4648 99.5938 72.9961 102.055 72.0586C104.516 71.082 106.371 69.5977 107.621 67.6055C108.91 65.5742 109.555 62.9961 109.555 59.8711C109.555 55.6914 108.148 52.4883 105.336 50.2617C102.523 48.0352 98.207 46.9219 92.3867 46.9219C90.1602 46.9219 87.8359 47.1367 85.4141 47.5664C83.0312 47.9961 81.0391 48.4258 79.4375 48.8555L72.2305 44.9883L75.4531 1.33594H121.918V16.6875H91.332L89.75 33.5039C91.0781 33.2305 92.5234 32.957 94.0859 32.6836C95.6484 32.4102 97.8359 32.2734 100.648 32.2734Z" fill="url(#paint0_linear_21_238)"/>
<defs>
<linearGradient id="paint0_linear_21_238" x1="-4" y1="40.5" x2="134" y2="40.5" gradientUnits="userSpaceOnUse">
<stop stop-color="#7D8EA1"/>
<stop offset="0.26554" stop-color="#FF6B6B"/>
</linearGradient>
</defs>
</svg>
