<svg width="65" height="86" viewBox="0 0 65 86" fill="none" xmlns="http://www.w3.org/2000/svg">
<path d="M64.6211 68.2461H54.3086V86H36.6133V68.2461H0.0507812V55.6484L37.6094 0.335938H54.3086V54.1836H64.6211V68.2461ZM36.6133 54.1836V39.6523C36.6133 38.2852 36.6328 36.6641 36.6719 34.7891C36.75 32.9141 36.8281 31.0391 36.9062 29.1641C36.9844 27.2891 37.0625 25.6289 37.1406 24.1836C37.2578 22.6992 37.3359 21.6641 37.375 21.0781H36.9062C36.1641 22.6797 35.3828 24.2422 34.5625 25.7656C33.7422 27.25 32.7852 28.8125 31.6914 30.4531L15.9883 54.1836H36.6133Z" fill="white"/>
<path d="M64.6211 68.2461H54.3086V86H36.6133V68.2461H0.0507812V55.6484L37.6094 0.335938H54.3086V54.1836H64.6211V68.2461ZM36.6133 54.1836V39.6523C36.6133 38.2852 36.6328 36.6641 36.6719 34.7891C36.75 32.9141 36.8281 31.0391 36.9062 29.1641C36.9844 27.2891 37.0625 25.6289 37.1406 24.1836C37.2578 22.6992 37.3359 21.6641 37.375 21.0781H36.9062C36.1641 22.6797 35.3828 24.2422 34.5625 25.7656C33.7422 27.25 32.7852 28.8125 31.6914 30.4531L15.9883 54.1836H36.6133Z" fill="url(#paint0_linear_21_206)"/>
<defs>
<linearGradient id="paint0_linear_21_206" x1="-2" y1="39.5" x2="67" y2="39.5" gradientUnits="userSpaceOnUse">
<stop stop-color="#7D8EA1"/>
<stop offset="0.26554" stop-color="#FF6B6B"/>
</linearGradient>
</defs>
</svg>
