<svg width="130" height="90" viewBox="0 0 130 90" fill="none" xmlns="http://www.w3.org/2000/svg">
<path d="M10.3008 88L42.4688 17.5703H0.222656V2.33594H61.6875V13.7031L29.2852 88H10.3008ZM129.891 45.168C129.891 52.082 129.344 58.2539 128.25 63.6836C127.195 69.1133 125.477 73.7227 123.094 77.5117C120.75 81.3008 117.664 84.1914 113.836 86.1836C110.008 88.1758 105.359 89.1719 99.8906 89.1719C93.0156 89.1719 87.3711 87.4336 82.957 83.957C78.543 80.4414 75.2812 75.4023 73.1719 68.8398C71.0625 62.2383 70.0078 54.3477 70.0078 45.168C70.0078 35.9102 70.9648 28 72.8789 21.4375C74.832 14.8359 77.9961 9.77734 82.3711 6.26172C86.7461 2.74609 92.5859 0.988281 99.8906 0.988281C106.727 0.988281 112.352 2.74609 116.766 6.26172C121.219 9.73828 124.52 14.7773 126.668 21.3789C128.816 27.9414 129.891 35.8711 129.891 45.168ZM87.9961 45.168C87.9961 51.6914 88.3477 57.1406 89.0508 61.5156C89.793 65.8516 91.0234 69.1133 92.7422 71.3008C94.4609 73.4883 96.8438 74.582 99.8906 74.582C102.898 74.582 105.262 73.5078 106.98 71.3594C108.738 69.1719 109.988 65.9102 110.73 61.5742C111.473 57.1992 111.844 51.7305 111.844 45.168C111.844 38.6445 111.473 33.1953 110.73 28.8203C109.988 24.4453 108.738 21.1641 106.98 18.9766C105.262 16.75 102.898 15.6367 99.8906 15.6367C96.8438 15.6367 94.4609 16.75 92.7422 18.9766C91.0234 21.1641 89.793 24.4453 89.0508 28.8203C88.3477 33.1953 87.9961 38.6445 87.9961 45.168Z" fill="white"/>
<path d="M10.3008 88L42.4688 17.5703H0.222656V2.33594H61.6875V13.7031L29.2852 88H10.3008ZM129.891 45.168C129.891 52.082 129.344 58.2539 128.25 63.6836C127.195 69.1133 125.477 73.7227 123.094 77.5117C120.75 81.3008 117.664 84.1914 113.836 86.1836C110.008 88.1758 105.359 89.1719 99.8906 89.1719C93.0156 89.1719 87.3711 87.4336 82.957 83.957C78.543 80.4414 75.2812 75.4023 73.1719 68.8398C71.0625 62.2383 70.0078 54.3477 70.0078 45.168C70.0078 35.9102 70.9648 28 72.8789 21.4375C74.832 14.8359 77.9961 9.77734 82.3711 6.26172C86.7461 2.74609 92.5859 0.988281 99.8906 0.988281C106.727 0.988281 112.352 2.74609 116.766 6.26172C121.219 9.73828 124.52 14.7773 126.668 21.3789C128.816 27.9414 129.891 35.8711 129.891 45.168ZM87.9961 45.168C87.9961 51.6914 88.3477 57.1406 89.0508 61.5156C89.793 65.8516 91.0234 69.1133 92.7422 71.3008C94.4609 73.4883 96.8438 74.582 99.8906 74.582C102.898 74.582 105.262 73.5078 106.98 71.3594C108.738 69.1719 109.988 65.9102 110.73 61.5742C111.473 57.1992 111.844 51.7305 111.844 45.168C111.844 38.6445 111.473 33.1953 110.73 28.8203C109.988 24.4453 108.738 21.1641 106.98 18.9766C105.262 16.75 102.898 15.6367 99.8906 15.6367C96.8438 15.6367 94.4609 16.75 92.7422 18.9766C91.0234 21.1641 89.793 24.4453 89.0508 28.8203C88.3477 33.1953 87.9961 38.6445 87.9961 45.168Z" fill="url(#paint0_linear_21_222)"/>
<defs>
<linearGradient id="paint0_linear_21_222" x1="-3" y1="41.5" x2="135" y2="41.5" gradientUnits="userSpaceOnUse">
<stop stop-color="#7D8EA1"/>
<stop offset="0.26554" stop-color="#FF6B6B"/>
</linearGradient>
</defs>
</svg>
