<svg width="32" height="32" viewBox="0 0 32 32" fill="none" xmlns="http://www.w3.org/2000/svg">
<rect x="0.5" y="0.5" width="31" height="31" stroke="white"/>
<g clip-path="url(#clip0_203_16)">
<path d="M25 10.6573C24.326 10.9431 23.611 11.1306 22.879 11.2138C23.6415 10.7764 24.227 10.0838 24.5027 9.25847C23.7778 9.67016 22.9847 9.96022 22.1577 10.1161C21.484 9.42926 20.5243 9 19.4621 9C17.4226 9 15.7691 10.5825 15.7691 12.5342C15.7691 12.8113 15.8018 13.081 15.8647 13.3397C12.7956 13.1923 10.0745 11.7852 8.25304 9.64695C7.93523 10.1689 7.75312 10.7761 7.75312 11.4238C7.75312 12.65 8.40513 13.7317 9.39597 14.3655C8.80953 14.3479 8.23599 14.1964 7.72323 13.9234C7.72302 13.9382 7.72302 13.953 7.72302 13.9679C7.72302 15.6803 8.99596 17.1088 10.6853 17.4335C10.1415 17.575 9.57107 17.5957 9.01762 17.494C9.48752 18.8982 10.8514 19.9199 12.4673 19.9485C11.2034 20.8964 9.61105 21.4615 7.88095 21.4615C7.58282 21.4615 7.28891 21.4447 7 21.4121C8.63427 22.4149 10.5754 23 12.6609 23C19.4535 23 23.1679 17.6145 23.1679 12.9441C23.1679 12.7908 23.1644 12.6384 23.1573 12.4868C23.8802 11.9866 24.5042 11.3671 25 10.6573Z" fill="white"/>
</g>
<defs>
<clipPath id="clip0_203_16">
<rect width="18" height="14" fill="white" transform="translate(7 9)"/>
</clipPath>
</defs>
</svg>
