<svg width="238" height="31" viewBox="0 0 238 31" fill="none" xmlns="http://www.w3.org/2000/svg">
<path d="M0.18 24V2.4H4.53L12.36 11.73L20.16 2.4H24.54V24H20.55V8.16L12.36 17.91L4.14 8.19V24H0.18ZM27.892 24V6.6H31.822V24H27.892ZM27.892 4.86V0.899999H31.822V4.86H27.892ZM38.2226 24C37.4426 24 36.7426 23.81 36.1226 23.43C35.5026 23.05 35.0026 22.55 34.6226 21.93C34.2626 21.31 34.0826 20.62 34.0826 19.86V10.74C34.0826 9.98 34.2626 9.29 34.6226 8.67C35.0026 8.05 35.5026 7.55 36.1226 7.17C36.7426 6.79 37.4426 6.6 38.2226 6.6H47.8526V0.899999H51.7826V24H38.2226ZM38.4026 20.07H47.4926C47.5926 20.07 47.6726 20.04 47.7326 19.98C47.8126 19.9 47.8526 19.81 47.8526 19.71V10.89C47.8526 10.79 47.8126 10.71 47.7326 10.65C47.6726 10.57 47.5926 10.53 47.4926 10.53H38.4026C38.3026 10.53 38.2126 10.57 38.1326 10.65C38.0726 10.71 38.0426 10.79 38.0426 10.89V19.71C38.0426 19.81 38.0726 19.9 38.1326 19.98C38.2126 20.04 38.3026 20.07 38.4026 20.07ZM47.7923 30.57V26.61H55.1423C55.2423 26.61 55.3223 26.57 55.3823 26.49C55.4623 26.43 55.5023 26.35 55.5023 26.25V6.6H59.4323V26.43C59.4323 27.19 59.2423 27.88 58.8623 28.5C58.5023 29.14 58.0023 29.64 57.3623 30C56.7423 30.38 56.0523 30.57 55.2923 30.57H47.7923ZM55.5023 4.86V0.899999H59.4323V4.86H55.5023ZM66.2501 24C65.4901 24 64.8001 23.81 64.1801 23.43C63.5601 23.05 63.0601 22.55 62.6801 21.93C62.3001 21.31 62.1101 20.62 62.1101 19.86V10.74C62.1101 9.98 62.3001 9.29 62.6801 8.67C63.0601 8.05 63.5601 7.55 64.1801 7.17C64.8001 6.79 65.4901 6.6 66.2501 6.6H75.6401C76.4001 6.6 77.0901 6.79 77.7101 7.17C78.3501 7.55 78.8501 8.05 79.2101 8.67C79.5901 9.29 79.7801 9.98 79.7801 10.74V19.86C79.7801 20.62 79.5901 21.31 79.2101 21.93C78.8501 22.55 78.3601 23.05 77.7401 23.43C77.1201 23.81 76.4201 24 75.6401 24H66.2501ZM66.4001 20.07H75.4901C75.5901 20.07 75.6701 20.04 75.7301 19.98C75.8101 19.9 75.8501 19.81 75.8501 19.71V10.89C75.8501 10.79 75.8101 10.71 75.7301 10.65C75.6701 10.57 75.5901 10.53 75.4901 10.53H66.4001C66.3001 10.53 66.2101 10.57 66.1301 10.65C66.0701 10.71 66.0401 10.79 66.0401 10.89V19.71C66.0401 19.81 66.0701 19.9 66.1301 19.98C66.2101 20.04 66.3001 20.07 66.4001 20.07ZM82.267 24V10.74C82.267 9.98 82.457 9.29 82.837 8.67C83.217 8.05 83.717 7.55 84.337 7.17C84.977 6.79 85.667 6.6 86.407 6.6H96.067V10.53H86.557C86.457 10.53 86.367 10.57 86.287 10.65C86.227 10.71 86.197 10.79 86.197 10.89V24H82.267ZM98.411 24V6.6H111.941C112.701 6.6 113.391 6.79 114.011 7.17C114.651 7.55 115.151 8.05 115.511 8.67C115.891 9.29 116.081 9.98 116.081 10.74V24H112.151V10.89C112.151 10.79 112.111 10.71 112.031 10.65C111.971 10.57 111.891 10.53 111.791 10.53H102.701C102.601 10.53 102.511 10.57 102.431 10.65C102.371 10.71 102.341 10.79 102.341 10.89V24H98.411ZM122.734 24C121.974 24 121.284 23.81 120.664 23.43C120.044 23.05 119.544 22.55 119.164 21.93C118.784 21.31 118.594 20.62 118.594 19.86V10.74C118.594 9.98 118.784 9.29 119.164 8.67C119.544 8.05 120.044 7.55 120.664 7.17C121.284 6.79 121.974 6.6 122.734 6.6H132.124C132.884 6.6 133.574 6.79 134.194 7.17C134.834 7.55 135.334 8.05 135.694 8.67C136.074 9.29 136.264 9.98 136.264 10.74V17.28H122.524V19.71C122.524 19.81 122.554 19.9 122.614 19.98C122.694 20.04 122.784 20.07 122.884 20.07H136.264V24H122.734ZM122.524 13.74H132.334V10.89C132.334 10.79 132.294 10.71 132.214 10.65C132.154 10.57 132.074 10.53 131.974 10.53H122.884C122.784 10.53 122.694 10.57 122.614 10.65C122.554 10.71 122.524 10.79 122.524 10.89V13.74ZM141.801 30.45V26.49H152.271C152.371 26.49 152.451 26.45 152.511 26.37C152.591 26.31 152.631 26.23 152.631 26.13V24H143.031C142.291 24 141.601 23.81 140.961 23.43C140.341 23.05 139.841 22.55 139.461 21.93C139.081 21.31 138.891 20.62 138.891 19.86V6.66H142.821V19.71C142.821 19.81 142.851 19.9 142.911 19.98C142.991 20.04 143.081 20.07 143.181 20.07H152.271C152.371 20.07 152.451 20.04 152.511 19.98C152.591 19.9 152.631 19.81 152.631 19.71V6.66H156.561V26.31C156.561 27.07 156.381 27.76 156.021 28.38C155.661 29.02 155.161 29.52 154.521 29.88C153.901 30.26 153.211 30.45 152.451 30.45H141.801ZM159.583 30.9V6.6H173.113C173.873 6.6 174.563 6.79 175.183 7.17C175.823 7.55 176.323 8.05 176.683 8.67C177.063 9.29 177.253 9.98 177.253 10.74V19.86C177.253 20.62 177.063 21.31 176.683 21.93C176.323 22.55 175.823 23.05 175.183 23.43C174.563 23.81 173.873 24 173.113 24H163.513V30.9H159.583ZM163.873 20.07H172.963C173.063 20.07 173.143 20.04 173.203 19.98C173.283 19.9 173.323 19.81 173.323 19.71V10.89C173.323 10.79 173.283 10.71 173.203 10.65C173.143 10.57 173.063 10.53 172.963 10.53H163.873C163.773 10.53 163.683 10.57 163.603 10.65C163.543 10.71 163.513 10.79 163.513 10.89V19.71C163.513 19.81 163.543 19.9 163.603 19.98C163.683 20.04 163.773 20.07 163.873 20.07ZM179.445 24V10.74C179.445 9.98 179.635 9.29 180.015 8.67C180.395 8.05 180.895 7.55 181.515 7.17C182.155 6.79 182.845 6.6 183.585 6.6H193.245V10.53H183.735C183.635 10.53 183.545 10.57 183.465 10.65C183.405 10.71 183.375 10.79 183.375 10.89V24H179.445ZM199.287 24C198.527 24 197.837 23.81 197.217 23.43C196.597 23.05 196.097 22.55 195.717 21.93C195.337 21.31 195.147 20.62 195.147 19.86V10.74C195.147 9.98 195.337 9.29 195.717 8.67C196.097 8.05 196.597 7.55 197.217 7.17C197.837 6.79 198.527 6.6 199.287 6.6H208.677C209.437 6.6 210.127 6.79 210.747 7.17C211.387 7.55 211.887 8.05 212.247 8.67C212.627 9.29 212.817 9.98 212.817 10.74V19.86C212.817 20.62 212.627 21.31 212.247 21.93C211.887 22.55 211.397 23.05 210.777 23.43C210.157 23.81 209.457 24 208.677 24H199.287ZM199.437 20.07H208.527C208.627 20.07 208.707 20.04 208.767 19.98C208.847 19.9 208.887 19.81 208.887 19.71V10.89C208.887 10.79 208.847 10.71 208.767 10.65C208.707 10.57 208.627 10.53 208.527 10.53H199.437C199.337 10.53 199.247 10.57 199.167 10.65C199.107 10.71 199.077 10.79 199.077 10.89V19.71C199.077 19.81 199.107 19.9 199.167 19.98C199.247 20.04 199.337 20.07 199.437 20.07ZM215.769 24V22.89L223.899 13.2L215.769 3.51V2.4H220.059L226.539 10.08L232.959 2.4H237.279V3.51L229.119 13.2L237.279 22.86V24H232.959L226.509 16.35L220.059 24H215.769Z" fill="url(#paint0_linear_21_176)"/>
<defs>
<linearGradient id="paint0_linear_21_176" x1="-1.5" y1="12" x2="239.5" y2="12" gradientUnits="userSpaceOnUse">
<stop stop-color="#7D8EA1"/>
<stop offset="0.26554" stop-color="#FF6B6B"/>
</linearGradient>
</defs>
</svg>
